:SAMPLES-PER-SECOND 30
:FULLY-SPECIFIED
:DEGREES
65
root  47.8653 39.4633 -0.0621991 -147.627 -88.6693 151.888
RightUpLeg  -17.4317 -29.6763 3.06374
RightLeg  22.7033 -1.40297 -0.863928
RightFoot  -9.29223 0.0120654 -4.17086
RightToes  2.32829e-010 0 -3.6325e-017
Spine  46.4971 -3.57093 8.00336
Spine1  1.85829 -0.256989 -1.77429
HEad  -44.6017 -0.158376 -8.01476
LeftShoulder1  11.5339 -19.0562 -44.5044
LeftArm  -20.779 -9.14647 -20.6312
LeftForeArm  15.9693 -65.4163 -24.0159
LeftHand  -0.244104 0.0205437 5.32207
RightShoulder  5.74676 11.573 32.1685
RightArm  -12.371 10.1223 19.5902
RightForeArm  -6.3855 66.2841 28.0991
RightHand  -0.0596059 -5.84282 5.64061
LeftUpLeg  -32.8852 24.7468 -7.62823
LeftLeg  27.8277 4.07515 2.65388
LeftFoot  0.0734858 -0.0987259 0.991966
LeftToes  1.42787e-010 7.94111e-011 2.6399e-011
66
root  47.2252 39.473 -0.00153423 179.967 -89.1751 -177.355
RightUpLeg  -13.9151 -29.9679 2.04995
RightLeg  22.4089 -1.3191 -0.80446
RightFoot  -10.051 -0.0303444 -3.34565
RightToes  2.32829e-010 0 -3.6325e-017
Spine  44.3807 -3.61899 8.37959
Spine1  1.85422 -0.24427 -1.8281
HEad  -41.3334 0.369383 -7.7177
LeftShoulder1  11.5148 -18.6602 -45.2615
LeftArm  -19.9768 -7.90428 -20.1727
LeftForeArm  15.7228 -66.0107 -24.8561
LeftHand  -0.244104 0.0205437 5.32207
RightShoulder  5.75321 11.4794 32.4507
RightArm  -11.162 9.11954 19.5996
RightForeArm  -8.3453 66.5546 28.7453
RightHand  -0.0808094 -6.49626 4.26859
LeftUpLeg  -29.1776 24.7955 -6.88666
LeftLeg  21.4743 3.94697 2.11806
LeftFoot  -0.723177 0.011228 -0.0533843
LeftToes  1.42787e-010 7.94111e-011 2.6399e-011
67
root  46.5434 39.4257 0.0938875 144.153 -88.868 -142.95
RightUpLeg  -10.9762 -29.5947 1.04756
RightLeg  22.7251 -1.62429 -0.974913
RightFoot  -10.9817 -0.0660694 -2.7748
RightToes  2.32829e-010 0 -3.6325e-017
Spine  41.9922 -3.39914 8.55524
Spine1  2.21273 -0.0149855 -2.03012
HEad  -38.3221 0.805922 -7.46706
LeftShoulder1  11.3748 -18.2875 -45.4882
LeftArm  -18.9082 -7.09247 -20.0201
LeftForeArm  14.6322 -66.0933 -25.1242
LeftHand  -0.244104 0.0205437 5.32207
RightShoulder  5.71237 11.3554 32.4971
RightArm  -9.647 8.33576 19.6115
RightForeArm  -11.2092 66.6372 29.1811
RightHand  -0.0790278 -7.10313 2.4991
LeftUpLeg  -25.2516 23.6259 -5.4518
LeftLeg  16.1083 3.72023 1.04166
LeftFoot  0.171013 0.0322748 -0.343703
LeftToes  1.42787e-010 7.94111e-011 2.6399e-011
68
root  45.8376 39.326 0.216635 166.528 -88.3372 -165.752
RightUpLeg  -9.98201 -28.0749 -0.262574
RightLeg  24.3936 -2.53658 -1.48835
RightFoot  -12.3773 -0.101177 -2.16339
RightToes  2.32829e-010 0 -3.6325e-017
Spine  38.6928 -2.58964 7.59968
Spine1  2.86566 0.267443 -1.97203
HEad  -35.58 1.30755 -7.16073
LeftShoulder1  11.1576 -17.9389 -45.3428
LeftArm  -17.8442 -6.50395 -20.0686
LeftForeArm  12.7747 -65.6122 -24.709
LeftHand  -0.244104 0.0205437 5.32207
RightShoulder  5.70647 11.2923 32.6214
RightArm  -7.843 7.84979 19.4423
RightForeArm  -14.484 66.4029 29.1227
RightHand  -0.0511747 -7.36381 0.560244
LeftUpLeg  -22.1834 18.8143 -3.5127
LeftLeg  13.0282 7.25343 -0.335182
LeftFoot  2.33254 -0.228035 1.73449
LeftToes  1.42787e-010 7.94111e-011 2.6399e-011
69
root  45.1686 39.2096 0.369146 -160.054 -87.6993 161.119
RightUpLeg  -10.9403 -26.3747 -2.09096
RightLeg  27.8017 -3.01788 -1.95555
RightFoot  -13.4254 -0.0938991 -0.196009
RightToes  2.32829e-010 0 -3.6325e-017
Spine  35.2331 -1.60556 5.62679
Spine1  3.27577 0.323735 -1.52134
HEad  -33.3103 1.88177 -6.74721
LeftShoulder1  10.9378 -17.575 -45.2148
LeftArm  -16.9242 -6.41981 -20.0582
LeftForeArm  10.2667 -64.338 -23.3965
LeftHand  -0.244104 0.0205437 5.32207
RightShoulder  5.72365 11.2533 32.8398
RightArm  -5.94411 7.80533 19.2943
RightForeArm  -17.4926 65.5952 28.1442
RightHand  -0.0239372 -7.19648 -0.908373
LeftUpLeg  -21.5861 17.2631 -4.56421
LeftLeg  12.7538 8.47536 -0.454221
LeftFoot  3.87809 -0.752541 5.48553
LeftToes  1.42787e-010 7.94111e-011 2.6399e-011
70
root  44.6013 39.1231 0.559009 -142.423 -87.0549 143.581
RightUpLeg  -13.1016 -25.3703 -3.99153
RightLeg  33.2351 -2.93631 -2.3285
RightFoot  -12.1285 -0.0708204 3.02034
RightToes  2.32829e-010 0 -3.6325e-017
Spine  33.0698 -1.10042 4.04042
Spine1  3.23871 0.211929 -1.28617
HEad  -31.9251 2.26671 -6.33605
LeftShoulder1  10.7692 -17.2715 -45.1685
LeftArm  -16.0089 -7.28237 -20.0116
LeftForeArm  7.43545 -62.0091 -21.152
LeftHand  -0.244104 0.0205437 5.32207
RightShoulder  5.70203 11.1893 32.8617
RightArm  -4.48683 8.07787 19.6449
RightForeArm  -19.6289 64.138 26.2833
RightHand  -0.0185456 -6.84272 -1.35808
LeftUpLeg  -22.0625 19.8368 -7.0431
LeftLeg  14.4197 6.22362 0.341741
LeftFoot  3.53007 -1.03104 7.72489
LeftToes  1.42787e-010 7.94111e-011 2.6399e-011
71
root  44.1641 39.0801 0.778979 -140.132 -86.6539 140.846
RightUpLeg  -16.2855 -24.4785 -5.32998
RightLeg  40.4805 -3.29443 -3.32125
RightFoot  -7.35534 -0.230932 5.28851
RightToes  2.32829e-010 0 -3.6325e-017
Spine  32.6293 -1.07036 3.61767
Spine1  3.07332 0.271166 -1.83059
HEad  -31.4134 2.37971 -6.06624
LeftShoulder1  10.7097 -17.1928 -45.0871
LeftArm  -14.9554 -8.89555 -19.9766
LeftForeArm  4.77986 -58.7561 -18.4949
LeftHand  -0.244104 0.0205437 5.32207
RightShoulder  5.69856 11.2203 32.7565
RightArm  -3.6741 8.53735 20.3321
RightForeArm  -21.3004 62.1315 23.995
RightHand  -0.022037 -6.36017 -1.35583
LeftUpLeg  -22.0655 22.768 -8.42759
LeftLeg  16.1658 3.74291 0.815924
LeftFoot  2.05875 -0.885952 7.4115
LeftToes  1.42787e-010 7.94111e-011 2.6399e-011
72
root  43.8418 39.033 0.99842 -144.911 -86.051 145.024
RightUpLeg  -20.2793 -22.8695 -6.15548
RightLeg  47.7364 -3.72427 -4.70241
RightFoot  -1.24393 -0.460917 5.20895
RightToes  2.32829e-010 0 -3.6325e-017
Spine  33.0764 -1.05361 3.45738
Spine1  3.10004 0.536759 -2.71747
HEad  -31.3844 2.55276 -5.97503
LeftShoulder1  10.7474 -17.3181 -44.9676
LeftArm  -13.9191 -10.6018 -19.8692
LeftForeArm  2.57471 -55.1408 -16.0943
LeftHand  -0.244104 0.0205437 5.32207
RightShoulder  5.79164 11.4275 32.8414
RightArm  -2.98772 9.52324 20.8837
RightForeArm  -23.432 59.5339 21.5353
RightHand  -0.025967 -5.61794 -1.77313
LeftUpLeg  -21.5951 24.7571 -8.81793
LeftLeg  17.3623 2.51035 0.776158
LeftFoot  0.785203 -0.730884 6.83658
LeftToes  1.42787e-010 7.94111e-011 2.6399e-011
73
root  43.5965 38.9592 1.18594 -149.132 -85.2677 148.893
RightUpLeg  -24.0507 -20.8924 -6.57253
RightLeg  52.2581 -3.24448 -4.86175
RightFoot  2.08432 -0.42826 3.72277
RightToes  2.32829e-010 0 -3.6325e-017
Spine  33.6268 -0.873909 2.86011
Spine1  3.33522 0.671401 -2.99549
HEad  -31.7809 3.05664 -6.0084
LeftShoulder1  10.8077 -17.4433 -44.9476
LeftArm  -13.1463 -12.1674 -19.6282
LeftForeArm  0.775755 -51.5908 -14.1657
LeftHand  -0.244104 0.0205437 5.32207
RightShoulder  5.94571 11.6975 33.1643
RightArm  -1.95363 11.3312 21.2704
RightForeArm  -25.6982 56.2723 18.9955
RightHand  -0.0364741 -4.67622 -2.14744
LeftUpLeg  -21.5087 26.1873 -9.25137
LeftLeg  18.5142 2.07512 0.872672
LeftFoot  -0.0514004 -0.738676 7.46779
LeftToes  1.42787e-010 7.94111e-011 2.6399e-011
74
root  43.4008 38.9239 1.32198 -153.238 -84.9451 153.071
RightUpLeg  -26.5809 -19.2529 -6.2517
RightLeg  52.1615 -2.4415 -3.76937
RightFoot  1.30999 -0.294247 2.73386
RightToes  2.32829e-010 0 -3.6325e-017
Spine  34.2393 -0.764035 2.39987
Spine1  3.68164 0.559461 -2.56788
HEad  -32.9293 3.67709 -6.05895
LeftShoulder1  10.8886 -17.512 -45.1438
LeftArm  -12.5564 -13.8586 -19.2534
LeftForeArm  -0.755504 -48.1313 -12.5811
LeftHand  -0.244104 0.0205437 5.32207
RightShoulder  6.10494 11.9362 33.5879
RightArm  -0.867323 13.4289 21.6615
RightForeArm  -26.967 52.7053 16.6739
RightHand  -0.041226 -3.67765 -1.54903
LeftUpLeg  -21.859 26.5491 -9.39545
LeftLeg  19.5151 2.22354 1.22156
LeftFoot  -0.664671 -0.767737 8.24053
LeftToes  1.42787e-010 7.94111e-011 2.6399e-011
75
root  43.2449 38.9203 1.39944 -160.411 -85.1244 160.843
RightUpLeg  -27.8981 -17.7435 -5.14529
RightLeg  47.448 -2.275 -2.96965
RightFoot  -1.49164 -0.327149 3.73176
RightToes  2.32829e-010 0 -3.6325e-017
Spine  35.0176 -0.804132 2.63459
Spine1  3.93751 0.510396 -2.2382
HEad  -34.8742 4.03886 -6.00724
LeftShoulder1  11.048 -17.6753 -45.4629
LeftArm  -11.8711 -15.705 -18.8055
LeftForeArm  -2.10729 -44.8181 -11.2679
LeftHand  -0.244104 0.0205437 5.32207
RightShoulder  6.28278 12.1933 34.0677
RightArm  -0.306531 14.9361 22.0424
RightForeArm  -27.4416 49.424 14.8679
RightHand  -0.0289148 -2.61227 -0.618961
LeftUpLeg  -22.6771 25.8182 -8.85865
LeftLeg  20.4194 2.82125 1.4957
LeftFoot  -1.24275 -0.722968 8.24986
LeftToes  1.42787e-010 7.94111e-011 2.6399e-011
